{"title":"Legion TS XVID - IMAGiNE","uid":5349919,"size":754852004,"categoryP":"video","categoryS":"movies","magnet":"?xt=urn:btih:638325a911947e2e6f659152893fe46efb44dcd7&amp;dn=Legion+TS+XVID+-+IMAGiNE&amp;tr=udp%3A%2F%2Ftracker.openbittorrent.com%3A80&amp;tr=udp%3A%2F%2Fopen.demonii.com%3A1337&amp;tr=udp%3A%2F%2Ftracker.coppersurfer.tk%3A6969&amp;tr=udp%3A%2F%2Fexodus.desync.com%3A6969","seeders":0,"leechers":1,"uploader":"IwannaFan2","files":2,"time":1265753072,"description":"Filename:\nLegion TS XVID - IMAGiNE\n\nRipper ...........: IMAGiNE                                        IMDB Rating.......:5.9/10                            \nVideo Codec.......: XVID                                         Release Date......:09/02/10\nAudio Codec.......:MP3                                           Theatre Date......:22/01/10\nAudio Bitrate.....:128                                              Runtime.......:1h 29mn\nSubtitles.........:NIL                                                 Language..........:ENGLISH\nResolution...... 600 x 300                                      IMDb URL..........:http://www.imdb.com/title/tt1038686/\n\nDETAILS:\n\nVideo\nID                               : 0\nFormat                           : MPEG-4 Visual\nFormat profile                   : Advanced Simple@L5\nFormat settings, BVOP            : Yes\nFormat settings, QPel            : No\nFormat settings, GMC             : No warppoints\nFormat settings, Matrix          : Default (H.263)\nMuxing mode                      : Packed bitstream\nCodec ID                         : XVID\nCodec ID/Hint                    : XviD\nDuration                         : 1h 29mn\nBit rate                         : 967 Kbps\nWidth                            : 600 pixels\nHeight                           : 300 pixels\nDisplay aspect ratio             : 2.000\nFrame rate                       : 23.976 fps\nResolution                       : 8 bits\nColorimetry                      : 4:2:0\nScan type                        : Progressive\nBits/(Pixel*Frame)               : 0.224\nStream size                      : 620 MiB (88%)\nWriting library                  : XviD 1.2.1 (UTC 2008-12-04)\n\nAudio\nID                               : 1\nFormat                           : MPEG Audio\nFormat version                   : Version 1\nFormat profile                   : Layer 3\nCodec ID                         : 55\nCodec ID/Hint                    : MP3\nDuration                         : 1h 29mn\nBit rate mode                    : Constant\nBit rate                         : 128 Kbps\nChannel(s)                       : 2 channels\nSampling rate                    : 44.1 KHz\nStream size                      : 82.1 MiB (12%)\nAlignment                        : Split accross interleaves\nInterleave, duration             : 42 ms (1.00 video frame)\nInterleave, preload duration     : 500 ms\n\n\nNOTES:\n\nIMAGiNE bringing you another release.....\nRight this is the same as our cam release but this time round muxed with the sweet audio from\nGhostman + Greenfrogr- (ELITE)......thanks.\nWil pre warn you whislt the audio is nice the video ain't up to much,so grab the sample and decide yourselfs.\nenjoy ","torrent":{"xt":"urn:btih:638325a911947e2e6f659152893fe46efb44dcd7","amp;dn":"Legion+TS+XVID+-+IMAGiNE","amp;tr":["udp%3A%2F%2Ftracker.openbittorrent.com%3A80","udp%3A%2F%2Fopen.demonii.com%3A1337","udp%3A%2F%2Ftracker.coppersurfer.tk%3A6969","udp%3A%2F%2Fexodus.desync.com%3A6969"],"infoHash":"638325a911947e2e6f659152893fe46efb44dcd7","infoHashBuffer":{"type":"Buffer","data":[99,131,37,169,17,148,126,46,111,101,145,82,137,63,228,110,251,68,220,215]},"announce":[],"urlList":[]}}